<svg xmlns="http://www.w3.org/2000/svg" width="256" height="256" viewBox="0 0 100 100">
  <path
    d="m38.5 75.72-1.93-16H19.24l-8.37 16H3.8l27.95-51.4h6.75l6.37 51.4H38.5ZM22.33 53.99h13.61l-1.16-10.76q-.95-7.98-.95-12.09-1.13 2.71-2.46 5.43-1.34 2.72-9.04 17.42Zm53.47.28 1.24-5.62h16.48l-5.48 25.13q-4.25 1.48-7.75 2.06-3.5.58-7.23.58-9.24 0-14.38-5.12-5.13-5.11-5.13-14.22 0-9.42 3.62-17.2 3.62-7.79 9.97-12.05 6.34-4.25 14.15-4.25 4.11 0 7.68.7 3.57.71 7.23 2.32l-2.47 5.63q-2.7-1.2-5.76-2.08-3.06-.87-6.75-.87-5.84 0-10.64 3.51-4.79 3.52-7.48 9.79-2.69 6.28-2.69 14.05 0 6.64 3.49 10.39 3.5 3.74 9.83 3.74 4.96 0 8.86-1.3l3.3-15.19H75.8Z"/>
  <style>
    @media (prefers-color-scheme: dark) {
      :root{
        filter: invert(100%)
      }
    }
  </style>
</svg>
